<svg xmlns="http://www.w3.org/2000/svg" width="1024" height="1024" viewBox="0 0 1024 1024">
  <defs>
    <linearGradient id="background" x1="124" y1="104" x2="902" y2="920" gradientUnits="userSpaceOnUse">
      <stop offset="0" stop-color="#3730a3"/>
      <stop offset="0.48" stop-color="#5b21b6"/>
      <stop offset="1" stop-color="#8b5cf6"/>
    </linearGradient>
    <linearGradient id="sky" x1="164" y1="308" x2="560" y2="814" gradientUnits="userSpaceOnUse">
      <stop offset="0" stop-color="#38bdf8"/>
      <stop offset="1" stop-color="#0284c7"/>
    </linearGradient>
    <linearGradient id="emerald" x1="316" y1="194" x2="708" y2="700" gradientUnits="userSpaceOnUse">
      <stop offset="0" stop-color="#6ee7b7"/>
      <stop offset="1" stop-color="#059669"/>
    </linearGradient>
    <linearGradient id="orange" x1="464" y1="332" x2="860" y2="838" gradientUnits="userSpaceOnUse">
      <stop offset="0" stop-color="#fdba74"/>
      <stop offset="1" stop-color="#ea580c"/>
    </linearGradient>
  </defs>
  <rect width="1024" height="1024" rx="228" fill="url(#background)"/>
  <rect x="164" y="308" width="396" height="506" rx="88" fill="url(#sky)" stroke="#ffffff" stroke-width="26"/>
  <path d="M226 340H488C516 340 538 362 538 390V432H226Z" fill="#ffffff" opacity="0.18"/>
  <path d="M438 308H472C520 308 560 348 560 396V430L438 308Z" fill="#bae6fd"/>
  <rect x="230" y="432" width="188" height="52" rx="26" fill="#ffffff"/>
  <rect x="230" y="534" width="140" height="52" rx="26" fill="#ffffff"/>
  <rect x="230" y="636" width="166" height="52" rx="26" fill="#ffffff"/>
  <rect x="316" y="194" width="392" height="506" rx="88" fill="url(#emerald)" stroke="#ffffff" stroke-width="26"/>
  <path d="M378 226H636C666 226 686 248 686 278V318H378Z" fill="#ffffff" opacity="0.18"/>
  <path d="M586 194H620C668 194 708 234 708 282V316L586 194Z" fill="#d1fae5"/>
  <rect x="384" y="298" width="82" height="82" rx="24" fill="#ffffff"/>
  <rect x="496" y="298" width="82" height="82" rx="24" fill="#ffffff"/>
  <rect x="384" y="410" width="82" height="82" rx="24" fill="#ffffff"/>
  <rect x="496" y="410" width="82" height="82" rx="24" fill="#ffffff"/>
  <rect x="464" y="332" width="396" height="506" rx="88" fill="url(#orange)" stroke="#ffffff" stroke-width="26"/>
  <path d="M526 364H788C816 364 838 386 838 414V456H526Z" fill="#ffffff" opacity="0.2"/>
  <path d="M738 332H772C820 332 860 372 860 420V454L738 332Z" fill="#ffedd5"/>
  <rect x="528" y="454" width="268" height="188" rx="34" fill="#ffffff"/>
  <rect x="592" y="690" width="140" height="52" rx="26" fill="#ffffff"/>
</svg>
